<svg aria-hidden="true" style="width:0;height:0;position:absolute;overflow:hidden" xmlns="http://www.w3.org/2000/svg"><defs><symbol id="quotes-down" viewBox="0 0 30 30"><path fill="#fff" style="fill:var(--color1,#fff)" d="M22.826 0c1.304 0 2.522.5 3.652 1.5 1.087 1.043 1.957 2.391 2.609 4.043.609 1.652.913 3.413.913 5.283 0 2.87-.5 5.565-1.5 8.087-1.043 2.565-2.304 4.717-3.783 6.457-1.478 1.783-2.891 3.043-4.239 3.783h-.065l-2.283-2.087v-.913c1.087-1 2.109-2.435 3.065-4.304.956-1.826 1.435-4.087 1.435-6.783 0-1.391-.196-2.522-.587-3.391s-.978-1.826-1.761-2.87c-.652-.826-1.13-1.543-1.435-2.152s-.457-1.348-.457-2.217c0-1.304.435-2.37 1.304-3.196.826-.826 1.87-1.239 3.13-1.239zM4.696 0C6 0 7.196.5 8.283 1.5c1.087 1.043 1.957 2.391 2.609 4.043.609 1.652.913 3.413.913 5.283 0 2.87-.5 5.565-1.5 8.087-1.043 2.565-2.304 4.739-3.783 6.522s-2.891 3.022-4.239 3.717h-.065L.001 27.065v-.913c1.087-1 2.109-2.435 3.065-4.304.957-1.826 1.435-4.087 1.435-6.783 0-1.391-.196-2.522-.587-3.391s-.978-1.826-1.761-2.87c-.652-.826-1.13-1.543-1.435-2.152S.261 5.304.261 4.435c0-1.304.435-2.37 1.304-3.196C2.391.413 3.435 0 4.695 0z"/></symbol><symbol id="quotes-up" viewBox="0 0 31 30"><path fill="#fff" style="fill:var(--color1,#fff)" d="M7.628 29.543c-1.304 0-2.522-.5-3.652-1.5C2.889 27 2.019 25.652 1.367 24c-.609-1.652-.913-3.413-.913-5.283 0-2.87.5-5.565 1.5-8.087 1.043-2.565 2.304-4.717 3.783-6.457C7.215 2.39 8.628 1.13 9.976.39h.065l2.283 2.087v.913c-1.087 1-2.109 2.435-3.065 4.304-.957 1.826-1.435 4.087-1.435 6.783 0 1.391.196 2.522.587 3.391s.978 1.826 1.761 2.87c.652.826 1.13 1.543 1.435 2.152s.457 1.348.457 2.217c0 1.304-.435 2.37-1.304 3.196-.826.826-1.87 1.239-3.13 1.239zm18.131 0c-1.304 0-2.5-.5-3.587-1.5C21.085 27 20.215 25.652 19.563 24c-.609-1.652-.913-3.413-.913-5.283 0-2.87.5-5.565 1.5-8.087 1.043-2.565 2.304-4.739 3.782-6.522s2.891-3.022 4.239-3.717h.065l2.217 2.087v.913c-1.087 1-2.109 2.435-3.065 4.304-.957 1.826-1.435 4.087-1.435 6.783 0 1.391.196 2.522.587 3.391s.978 1.826 1.761 2.87c.652.826 1.13 1.543 1.435 2.152s.457 1.348.457 2.217c0 1.304-.435 2.37-1.304 3.196-.826.826-1.87 1.239-3.13 1.239z"/></symbol><symbol id="cross" viewBox="0 0 30 30"><path d="M30 3.021 26.979 0 15 11.979 3.021 0 0 3.021 11.979 15 0 26.979 3.021 30 15 18.021 26.979 30 30 26.979 18.021 15 30 3.021z"/></symbol><symbol id="menu" viewBox="0 0 45 30"><path d="M0 30h45v-5H0v5zm0-12.5h45v-5H0v5zM0 0v5h45V0H0z"/></symbol><symbol id="arrow-up" viewBox="0 0 16 16"><path d="M8.909 15.273V4.209l5.082 5.082L15.273 8 8 .727.727 8l1.282 1.282 5.082-5.073v11.064h1.818z"/></symbol></defs></svg>