<svg aria-hidden="true" style="width:0;height:0;position:absolute;overflow:hidden" xmlns="http://www.w3.org/2000/svg"><defs><symbol id="quotes-down" viewBox="0 0 30 30"><path fill="#fff" style="fill:var(--color1,#fff)" d="M22.826 0c1.304 0 2.522.5 3.652 1.5 1.087 1.043 1.957 2.391 2.609 4.043.609 1.652.913 3.413.913 5.283 0 2.87-.5 5.565-1.5 8.087-1.043 2.565-2.304 4.717-3.783 6.457-1.478 1.783-2.891 3.043-4.239 3.783h-.065l-2.283-2.087v-.913c1.087-1 2.109-2.435 3.065-4.304.956-1.826 1.435-4.087 1.435-6.783 0-1.391-.196-2.522-.587-3.391s-.978-1.826-1.761-2.87c-.652-.826-1.13-1.543-1.435-2.152s-.457-1.348-.457-2.217c0-1.304.435-2.37 1.304-3.196.826-.826 1.87-1.239 3.13-1.239zM4.696 0C6 0 7.196.5 8.283 1.5c1.087 1.043 1.957 2.391 2.609 4.043.609 1.652.913 3.413.913 5.283 0 2.87-.5 5.565-1.5 8.087-1.043 2.565-2.304 4.739-3.783 6.522s-2.891 3.022-4.239 3.717h-.065L.001 27.065v-.913c1.087-1 2.109-2.435 3.065-4.304.957-1.826 1.435-4.087 1.435-6.783 0-1.391-.196-2.522-.587-3.391s-.978-1.826-1.761-2.87c-.652-.826-1.13-1.543-1.435-2.152S.261 5.304.261 4.435c0-1.304.435-2.37 1.304-3.196C2.391.413 3.435 0 4.695 0z"/></symbol><symbol id="quotes-up" viewBox="0 0 31 30"><path fill="#fff" style="fill:var(--color1,#fff)" d="M7.628 29.543c-1.304 0-2.522-.5-3.652-1.5C2.889 27 2.019 25.652 1.367 24c-.609-1.652-.913-3.413-.913-5.283 0-2.87.5-5.565 1.5-8.087 1.043-2.565 2.304-4.717 3.783-6.457C7.215 2.39 8.628 1.13 9.976.39h.065l2.283 2.087v.913c-1.087 1-2.109 2.435-3.065 4.304-.957 1.826-1.435 4.087-1.435 6.783 0 1.391.196 2.522.587 3.391s.978 1.826 1.761 2.87c.652.826 1.13 1.543 1.435 2.152s.457 1.348.457 2.217c0 1.304-.435 2.37-1.304 3.196-.826.826-1.87 1.239-3.13 1.239zm18.131 0c-1.304 0-2.5-.5-3.587-1.5C21.085 27 20.215 25.652 19.563 24c-.609-1.652-.913-3.413-.913-5.283 0-2.87.5-5.565 1.5-8.087 1.043-2.565 2.304-4.739 3.782-6.522s2.891-3.022 4.239-3.717h.065l2.217 2.087v.913c-1.087 1-2.109 2.435-3.065 4.304-.957 1.826-1.435 4.087-1.435 6.783 0 1.391.196 2.522.587 3.391s.978 1.826 1.761 2.87c.652.826 1.13 1.543 1.435 2.152s.457 1.348.457 2.217c0 1.304-.435 2.37-1.304 3.196-.826.826-1.87 1.239-3.13 1.239z"/></symbol><symbol id="cross" viewBox="0 0 30 30"><path d="M30 3.021 26.979 0 15 11.979 3.021 0 0 3.021 11.979 15 0 26.979 3.021 30 15 18.021 26.979 30 30 26.979 18.021 15 30 3.021z"/></symbol><symbol id="menu" viewBox="0 0 45 30"><path d="M0 30h45v-5H0v5zm0-12.5h45v-5H0v5zM0 0v5h45V0H0z"/></symbol><symbol id="arrow-up" viewBox="0 0 16 16"><path d="M8.909 15.273V4.209l5.082 5.082L15.273 8 8 .727.727 8l1.282 1.282 5.082-5.073v11.064h1.818z"/></symbol><symbol id="call" viewBox="0 0 29 29"><path fill="#fff" style="fill:var(--color1,#fff)" d="M20.038 15.205c-.056.085-.056.169-.085.282-.028.366.254.705.62.733s.705-.254.733-.62c0-.085 0-.169.028-.31v-.31c0-.817-.141-1.606-.395-2.367-.338-.986-.93-1.86-1.635-2.593a7.134 7.134 0 0 0-3.156-1.832 7.476 7.476 0 0 0-1.776-.225c-.197 0-.395 0-.62.028l-.592.085c-.366.056-.62.423-.536.761.056.366.423.62.761.535.169-.028.31-.056.479-.056h.085c.141 0 .282-.028.423-.028 1.55 0 2.987.62 4.002 1.663a5.678 5.678 0 0 1 1.663 3.946v.31z"/><path fill="#fff" style="fill:var(--color1,#fff)" d="M23.758 15.825c-.028.366.254.705.62.733s.704-.254.733-.62c.028-.31.028-.62.028-.93 0-.62-.056-1.212-.141-1.804-.366-2.255-1.465-4.284-3.016-5.834-1.776-1.776-4.143-2.931-6.764-3.128-.282-.028-.592-.028-.874-.028-.31 0-.62 0-.93.028s-.62.056-.93.113c-.366.056-.62.423-.536.761.056.366.423.62.761.535.197-.028.366-.056.564-.085.085 0 .169-.028.254-.028.282-.028.564-.028.817-.028.958 0 1.86.141 2.734.395a9.369 9.369 0 0 1 3.974 2.367 9.677 9.677 0 0 1 2.114 3.185 9.522 9.522 0 0 1 .676 3.495v.282a2.322 2.322 0 0 0-.085.592z"/><path fill="#fff" style="fill:var(--color1,#fff)" d="M24.716 4.664a14.633 14.633 0 0 0-10.4-4.312c-.423 0-.846.028-1.268.056s-.846.085-1.268.169c-.366.056-.62.423-.536.761.056.366.423.62.761.535.197-.028.366-.056.564-.085s.395-.056.592-.056.761-.056 1.155-.056c3.664 0 6.989 1.494 9.413 3.889a13.265 13.265 0 0 1 3.889 9.413v.62c0 .169-.028.338-.028.536-.028.366.254.705.62.733s.705-.254.733-.62c.028-.423.056-.846.056-1.24 0-4.03-1.635-7.694-4.284-10.343zM27.957 21.743l-4.988-2.677c-1.663-.902-1.719-.31-3.466 1.55-.423.451-1.212 1.635-2.142 1.409-1.945-.479-5.58-3.326-6.764-4.622-.564-.62-2.987-3.579-3.016-4.538-.056-1.465 3.156-2.198 2.114-4.988L7.469 2.889C5.383-1.902-.45 5.764.029 9.343c1.24 8.821 16.713 23.082 25.337 18.375 1.916-1.071 4.509-4.819 2.593-5.975z"/></symbol></defs></svg>