<svg aria-hidden="true" style="position: absolute; width: 0; height: 0; overflow: hidden;" version="1.1" xmlns="http://www.w3.org/2000/svg" xmlns:xlink="http://www.w3.org/1999/xlink">
<defs>
<symbol id="quotes-down" viewBox="0 0 30 30">
<path fill="#fff" style="fill: var(--color1, #fff)" d="M22.826-0c1.304 0 2.522 0.5 3.652 1.5 1.087 1.043 1.957 2.391 2.609 4.043 0.609 1.652 0.913 3.413 0.913 5.283 0 2.87-0.5 5.565-1.5 8.087-1.043 2.565-2.304 4.717-3.783 6.457-1.478 1.783-2.891 3.043-4.239 3.783h-0.065l-2.283-2.087v-0.913c1.087-1 2.109-2.435 3.065-4.304 0.956-1.826 1.435-4.087 1.435-6.783 0-1.391-0.196-2.522-0.587-3.391s-0.978-1.826-1.761-2.87c-0.652-0.826-1.13-1.543-1.435-2.152s-0.457-1.348-0.457-2.217c0-1.304 0.435-2.37 1.304-3.196 0.826-0.826 1.87-1.239 3.13-1.239zM4.696-0c1.304 0 2.5 0.5 3.587 1.5 1.087 1.043 1.957 2.391 2.609 4.043 0.609 1.652 0.913 3.413 0.913 5.283 0 2.87-0.5 5.565-1.5 8.087-1.043 2.565-2.304 4.739-3.783 6.522s-2.891 3.022-4.239 3.717h-0.065l-2.217-2.087v-0.913c1.087-1 2.109-2.435 3.065-4.304 0.957-1.826 1.435-4.087 1.435-6.783 0-1.391-0.196-2.522-0.587-3.391s-0.978-1.826-1.761-2.87c-0.652-0.826-1.13-1.543-1.435-2.152s-0.457-1.348-0.457-2.217c0-1.304 0.435-2.37 1.304-3.196 0.826-0.826 1.87-1.239 3.13-1.239z"></path>
</symbol>
<symbol id="quotes-up" viewBox="0 0 31 30">
<path fill="#fff" style="fill: var(--color1, #fff)" d="M7.628 29.543c-1.304 0-2.522-0.5-3.652-1.5-1.087-1.043-1.957-2.391-2.609-4.043-0.609-1.652-0.913-3.413-0.913-5.283 0-2.87 0.5-5.565 1.5-8.087 1.043-2.565 2.304-4.717 3.783-6.457 1.478-1.783 2.891-3.043 4.239-3.783h0.065l2.283 2.087v0.913c-1.087 1-2.109 2.435-3.065 4.304-0.957 1.826-1.435 4.087-1.435 6.783 0 1.391 0.196 2.522 0.587 3.391s0.978 1.826 1.761 2.87c0.652 0.826 1.13 1.543 1.435 2.152s0.457 1.348 0.457 2.217c0 1.304-0.435 2.37-1.304 3.196-0.826 0.826-1.87 1.239-3.13 1.239zM25.759 29.543c-1.304 0-2.5-0.5-3.587-1.5-1.087-1.043-1.957-2.391-2.609-4.043-0.609-1.652-0.913-3.413-0.913-5.283 0-2.87 0.5-5.565 1.5-8.087 1.043-2.565 2.304-4.739 3.782-6.522s2.891-3.022 4.239-3.717h0.065l2.217 2.087v0.913c-1.087 1-2.109 2.435-3.065 4.304-0.957 1.826-1.435 4.087-1.435 6.783 0 1.391 0.196 2.522 0.587 3.391s0.978 1.826 1.761 2.87c0.652 0.826 1.13 1.543 1.435 2.152s0.457 1.348 0.457 2.217c0 1.304-0.435 2.37-1.304 3.196-0.826 0.826-1.87 1.239-3.13 1.239z"></path>
</symbol>
<symbol id="cross" viewBox="0 0 30 30">
<path d="M30 3.021l-3.021-3.021-11.979 11.979-11.979-11.979-3.021 3.021 11.979 11.979-11.979 11.979 3.021 3.021 11.979-11.979 11.979 11.979 3.021-3.021-11.979-11.979 11.979-11.979z"></path>
</symbol>
<symbol id="menu" viewBox="0 0 45 30">
<path d="M0 30h45v-5h-45v5zM0 17.5h45v-5h-45v5zM0 0v5h45v-5h-45z"></path>
</symbol>
<symbol id="arrow-up" viewBox="0 0 16 16">
<path d="M8.909 15.273v-11.064l5.082 5.082 1.282-1.291-7.273-7.273-7.273 7.273 1.282 1.282 5.082-5.073v11.064h1.818z"></path>
</symbol>
</defs>
</svg>
